<svg xmlns="http://www.w3.org/2000/svg" width="440" height="300" viewBox="0 0 440 300"><rect width="440" height="300" fill="#ffffff" stroke="#d1d5db"/><text x="16" y="24" font-size="16" font-family="Arial" fill="#111827">Symmetry Reflection</text><line x1="52" y1="52" x2="388" y2="52" stroke="#d1d5db"/><line x1="52" y1="80" x2="388" y2="80" stroke="#d1d5db"/><line x1="52" y1="108" x2="388" y2="108" stroke="#d1d5db"/><line x1="52" y1="136" x2="388" y2="136" stroke="#d1d5db"/><line x1="52" y1="164" x2="388" y2="164" stroke="#d1d5db"/><line x1="52" y1="192" x2="388" y2="192" stroke="#d1d5db"/><line x1="52" y1="220" x2="388" y2="220" stroke="#d1d5db"/><line x1="52" y1="248" x2="388" y2="248" stroke="#d1d5db"/><line x1="52" y1="276" x2="388" y2="276" stroke="#d1d5db"/><line x1="52" y1="52" x2="52" y2="276" stroke="#d1d5db"/><line x1="80" y1="52" x2="80" y2="276" stroke="#d1d5db"/><line x1="108" y1="52" x2="108" y2="276" stroke="#d1d5db"/><line x1="136" y1="52" x2="136" y2="276" stroke="#d1d5db"/><line x1="164" y1="52" x2="164" y2="276" stroke="#d1d5db"/><line x1="192" y1="52" x2="192" y2="276" stroke="#d1d5db"/><line x1="220" y1="52" x2="220" y2="276" stroke="#d1d5db"/><line x1="248" y1="52" x2="248" y2="276" stroke="#d1d5db"/><line x1="276" y1="52" x2="276" y2="276" stroke="#d1d5db"/><line x1="304" y1="52" x2="304" y2="276" stroke="#d1d5db"/><line x1="332" y1="52" x2="332" y2="276" stroke="#d1d5db"/><line x1="360" y1="52" x2="360" y2="276" stroke="#d1d5db"/><line x1="388" y1="52" x2="388" y2="276" stroke="#d1d5db"/><line x1="220" y1="52" x2="220" y2="276" stroke="#ef4444" stroke-width="2"/><polygon points="96,160 150,120 178,185 122,210" fill="#bfdbfe" stroke="#1d4ed8" stroke-width="2"/><polygon points="344,160 290,120 262,185 318,210" fill="#bfdbfe" stroke="#1d4ed8" stroke-width="2"/></svg>