<svg xmlns="http://www.w3.org/2000/svg" width="440" height="300" viewBox="0 0 440 300"><rect width="440" height="300" fill="#ffffff" stroke="#d1d5db"/><text x="16" y="24" font-size="16" font-family="Arial" fill="#111827">Mensuration</text><rect x="90" y="55" width="28" height="28" fill="#dcfce7" stroke="#166534" stroke-width="1.2"/><rect x="118" y="55" width="28" height="28" fill="#dcfce7" stroke="#166534" stroke-width="1.2"/><rect x="146" y="55" width="28" height="28" fill="#dcfce7" stroke="#166534" stroke-width="1.2"/><rect x="174" y="55" width="28" height="28" fill="#dcfce7" stroke="#166534" stroke-width="1.2"/><rect x="202" y="55" width="28" height="28" fill="#dcfce7" stroke="#166534" stroke-width="1.2"/><rect x="230" y="55" width="28" height="28" fill="#dcfce7" stroke="#166534" stroke-width="1.2"/><rect x="258" y="55" width="28" height="28" fill="#dcfce7" stroke="#166534" stroke-width="1.2"/><rect x="90" y="83" width="28" height="28" fill="#dcfce7" stroke="#166534" stroke-width="1.2"/><rect x="118" y="83" width="28" height="28" fill="#dcfce7" stroke="#166534" stroke-width="1.2"/><rect x="146" y="83" width="28" height="28" fill="#dcfce7" stroke="#166534" stroke-width="1.2"/><rect x="174" y="83" width="28" height="28" fill="#dcfce7" stroke="#166534" stroke-width="1.2"/><rect x="202" y="83" width="28" height="28" fill="#dcfce7" stroke="#166534" stroke-width="1.2"/><rect x="230" y="83" width="28" height="28" fill="#dcfce7" stroke="#166534" stroke-width="1.2"/><rect x="258" y="83" width="28" height="28" fill="#dcfce7" stroke="#166534" stroke-width="1.2"/><rect x="90" y="111" width="28" height="28" fill="#dcfce7" stroke="#166534" stroke-width="1.2"/><rect x="118" y="111" width="28" height="28" fill="#dcfce7" stroke="#166534" stroke-width="1.2"/><rect x="146" y="111" width="28" height="28" fill="#dcfce7" stroke="#166534" stroke-width="1.2"/><rect x="174" y="111" width="28" height="28" fill="#dcfce7" stroke="#166534" stroke-width="1.2"/><rect x="202" y="111" width="28" height="28" fill="#dcfce7" stroke="#166534" stroke-width="1.2"/><rect x="230" y="111" width="28" height="28" fill="#dcfce7" stroke="#166534" stroke-width="1.2"/><rect x="258" y="111" width="28" height="28" fill="#dcfce7" stroke="#166534" stroke-width="1.2"/><rect x="90" y="139" width="28" height="28" fill="#dcfce7" stroke="#166534" stroke-width="1.2"/><rect x="118" y="139" width="28" height="28" fill="#dcfce7" stroke="#166534" stroke-width="1.2"/><rect x="146" y="139" width="28" height="28" fill="#dcfce7" stroke="#166534" stroke-width="1.2"/><rect x="174" y="139" width="28" height="28" fill="#dcfce7" stroke="#166534" stroke-width="1.2"/><rect x="90" y="167" width="28" height="28" fill="#dcfce7" stroke="#166534" stroke-width="1.2"/><rect x="118" y="167" width="28" height="28" fill="#dcfce7" stroke="#166534" stroke-width="1.2"/><rect x="146" y="167" width="28" height="28" fill="#dcfce7" stroke="#166534" stroke-width="1.2"/><rect x="174" y="167" width="28" height="28" fill="#dcfce7" stroke="#166534" stroke-width="1.2"/><rect x="90" y="195" width="28" height="28" fill="#dcfce7" stroke="#166534" stroke-width="1.2"/><rect x="118" y="195" width="28" height="28" fill="#dcfce7" stroke="#166534" stroke-width="1.2"/><rect x="146" y="195" width="28" height="28" fill="#dcfce7" stroke="#166534" stroke-width="1.2"/><rect x="174" y="195" width="28" height="28" fill="#dcfce7" stroke="#166534" stroke-width="1.2"/><text x="90" y="250" font-size="13">Each square = 1 sq unit</text></svg>