<svg xmlns="http://www.w3.org/2000/svg" width="420" height="280" viewBox="0 0 420 280"><rect width="420" height="280" fill="#ffffff" stroke="#d1d5db"/><text x="18" y="24" font-size="16" font-family="Arial" fill="#111827">Grid Move</text><text x="58" y="45" font-size="14">P=(1,5), A=(3,5), B=(2,3), C=(3,2), D=(5,1)</text><line x1="70" y1="55" x2="262" y2="55" stroke="#cbd5e1"/><line x1="70" y1="87" x2="262" y2="87" stroke="#cbd5e1"/><line x1="70" y1="119" x2="262" y2="119" stroke="#cbd5e1"/><line x1="70" y1="151" x2="262" y2="151" stroke="#cbd5e1"/><line x1="70" y1="183" x2="262" y2="183" stroke="#cbd5e1"/><line x1="70" y1="215" x2="262" y2="215" stroke="#cbd5e1"/><line x1="70" y1="247" x2="262" y2="247" stroke="#cbd5e1"/><line x1="70" y1="55" x2="70" y2="247" stroke="#cbd5e1"/><line x1="102" y1="55" x2="102" y2="247" stroke="#cbd5e1"/><line x1="134" y1="55" x2="134" y2="247" stroke="#cbd5e1"/><line x1="166" y1="55" x2="166" y2="247" stroke="#cbd5e1"/><line x1="198" y1="55" x2="198" y2="247" stroke="#cbd5e1"/><line x1="230" y1="55" x2="230" y2="247" stroke="#cbd5e1"/><line x1="262" y1="55" x2="262" y2="247" stroke="#cbd5e1"/><circle cx="102" cy="215" r="7" fill="#2563eb"/><text x="112" y="219" font-size="13">P</text></svg>