<svg xmlns="http://www.w3.org/2000/svg" width="420" height="280" viewBox="0 0 420 280"><rect width="420" height="280" fill="#ffffff" stroke="#d1d5db"/><text x="18" y="24" font-size="16" font-family="Arial" fill="#111827">Grid A</text><rect x="70" y="55" width="30" height="30" fill="#ffffff" stroke="#111827" stroke-width="1.5"/><rect x="100" y="55" width="30" height="30" fill="#93c5fd" stroke="#111827" stroke-width="1.5"/><rect x="130" y="55" width="30" height="30" fill="#93c5fd" stroke="#111827" stroke-width="1.5"/><rect x="160" y="55" width="30" height="30" fill="#ffffff" stroke="#111827" stroke-width="1.5"/><rect x="190" y="55" width="30" height="30" fill="#ffffff" stroke="#111827" stroke-width="1.5"/><rect x="70" y="85" width="30" height="30" fill="#93c5fd" stroke="#111827" stroke-width="1.5"/><rect x="100" y="85" width="30" height="30" fill="#ffffff" stroke="#111827" stroke-width="1.5"/><rect x="130" y="85" width="30" height="30" fill="#ffffff" stroke="#111827" stroke-width="1.5"/><rect x="160" y="85" width="30" height="30" fill="#93c5fd" stroke="#111827" stroke-width="1.5"/><rect x="190" y="85" width="30" height="30" fill="#ffffff" stroke="#111827" stroke-width="1.5"/><rect x="70" y="115" width="30" height="30" fill="#ffffff" stroke="#111827" stroke-width="1.5"/><rect x="100" y="115" width="30" height="30" fill="#ffffff" stroke="#111827" stroke-width="1.5"/><rect x="130" y="115" width="30" height="30" fill="#93c5fd" stroke="#111827" stroke-width="1.5"/><rect x="160" y="115" width="30" height="30" fill="#ffffff" stroke="#111827" stroke-width="1.5"/><rect x="190" y="115" width="30" height="30" fill="#93c5fd" stroke="#111827" stroke-width="1.5"/><rect x="70" y="145" width="30" height="30" fill="#93c5fd" stroke="#111827" stroke-width="1.5"/><rect x="100" y="145" width="30" height="30" fill="#ffffff" stroke="#111827" stroke-width="1.5"/><rect x="130" y="145" width="30" height="30" fill="#ffffff" stroke="#111827" stroke-width="1.5"/><rect x="160" y="145" width="30" height="30" fill="#ffffff" stroke="#111827" stroke-width="1.5"/><rect x="190" y="145" width="30" height="30" fill="#93c5fd" stroke="#111827" stroke-width="1.5"/></svg>