<svg xmlns="http://www.w3.org/2000/svg" width="420" height="280" viewBox="0 0 420 280"><rect width="420" height="280" fill="#ffffff" stroke="#d1d5db"/><text x="18" y="24" font-size="16" font-family="Arial" fill="#111827">L-Shaped Figure</text><rect x="90" y="60" width="30" height="30" fill="#dcfce7" stroke="#166534" stroke-width="1.2"/><rect x="120" y="60" width="30" height="30" fill="#dcfce7" stroke="#166534" stroke-width="1.2"/><rect x="150" y="60" width="30" height="30" fill="#dcfce7" stroke="#166534" stroke-width="1.2"/><rect x="180" y="60" width="30" height="30" fill="#dcfce7" stroke="#166534" stroke-width="1.2"/><rect x="210" y="60" width="30" height="30" fill="#dcfce7" stroke="#166534" stroke-width="1.2"/><rect x="90" y="90" width="30" height="30" fill="#dcfce7" stroke="#166534" stroke-width="1.2"/><rect x="120" y="90" width="30" height="30" fill="#dcfce7" stroke="#166534" stroke-width="1.2"/><rect x="150" y="90" width="30" height="30" fill="#dcfce7" stroke="#166534" stroke-width="1.2"/><rect x="180" y="90" width="30" height="30" fill="#dcfce7" stroke="#166534" stroke-width="1.2"/><rect x="210" y="90" width="30" height="30" fill="#dcfce7" stroke="#166534" stroke-width="1.2"/><rect x="90" y="120" width="30" height="30" fill="#dcfce7" stroke="#166534" stroke-width="1.2"/><rect x="120" y="120" width="30" height="30" fill="#dcfce7" stroke="#166534" stroke-width="1.2"/><rect x="150" y="120" width="30" height="30" fill="#dcfce7" stroke="#166534" stroke-width="1.2"/><rect x="90" y="150" width="30" height="30" fill="#dcfce7" stroke="#166534" stroke-width="1.2"/><rect x="120" y="150" width="30" height="30" fill="#dcfce7" stroke="#166534" stroke-width="1.2"/><rect x="150" y="150" width="30" height="30" fill="#dcfce7" stroke="#166534" stroke-width="1.2"/><rect x="90" y="180" width="30" height="30" fill="#dcfce7" stroke="#166534" stroke-width="1.2"/><rect x="120" y="180" width="30" height="30" fill="#dcfce7" stroke="#166534" stroke-width="1.2"/><rect x="150" y="180" width="30" height="30" fill="#dcfce7" stroke="#166534" stroke-width="1.2"/><text x="88" y="230" font-size="14" font-family="Arial">Each small square = 1 sq unit</text></svg>