<svg width="640" height="420" viewBox="0 0 640 420" xmlns="http://www.w3.org/2000/svg" role="img" aria-labelledby="title desc">
  <title id="title">MindSparc Level 1 - Ordering and Ranking</title>
  <desc id="desc">A podium and student line for ordering and ranking practice.</desc>
  <rect width="640" height="420" rx="32" fill="#fefce8"/>
  <text x="54" y="72" fill="#a16207" font-family="Verdana, Arial, sans-serif" font-size="26" font-weight="800">Ordering and Ranking</text>
  <text x="54" y="105" fill="#57534e" font-family="Verdana, Arial, sans-serif" font-size="15">Use before, after, first, last, top and bottom.</text>
  <g transform="translate(74 170)" font-family="Verdana, Arial, sans-serif" text-anchor="middle" font-weight="900">
    <g transform="translate(0 0)">
      <circle cx="34" cy="24" r="24" fill="#38bdf8"/><rect x="10" y="54" width="48" height="72" rx="22" fill="#60a5fa"/><text x="34" y="162" fill="#0f172a" font-size="18">1st</text>
    </g>
    <g transform="translate(104 20)">
      <circle cx="34" cy="24" r="24" fill="#f97316"/><rect x="10" y="54" width="48" height="72" rx="22" fill="#fb923c"/><text x="34" y="142" fill="#0f172a" font-size="18">2nd</text>
    </g>
    <g transform="translate(208 40)">
      <circle cx="34" cy="24" r="24" fill="#22c55e"/><rect x="10" y="54" width="48" height="72" rx="22" fill="#4ade80"/><text x="34" y="122" fill="#0f172a" font-size="18">3rd</text>
    </g>
    <g transform="translate(312 60)">
      <circle cx="34" cy="24" r="24" fill="#a855f7"/><rect x="10" y="54" width="48" height="72" rx="22" fill="#c084fc"/><text x="34" y="102" fill="#0f172a" font-size="18">4th</text>
    </g>
    <g transform="translate(416 80)">
      <circle cx="34" cy="24" r="24" fill="#ef4444"/><rect x="10" y="54" width="48" height="72" rx="22" fill="#f87171"/><text x="34" y="82" fill="#0f172a" font-size="18">5th</text>
    </g>
  </g>
  <path d="M70 344 H570" stroke="#ca8a04" stroke-width="5" stroke-linecap="round" stroke-dasharray="14 10"/>
</svg>
