<svg xmlns="http://www.w3.org/2000/svg" width="420" height="280" viewBox="0 0 420 280"><rect width="420" height="280" fill="#ffffff" stroke="#d1d5db"/><text x="18" y="24" font-size="16" font-family="Arial" fill="#111827">Coordinate Grid</text><line x1="60" y1="50" x2="300" y2="50" stroke="#d1d5db"/><line x1="60" y1="80" x2="300" y2="80" stroke="#d1d5db"/><line x1="60" y1="110" x2="300" y2="110" stroke="#d1d5db"/><line x1="60" y1="140" x2="300" y2="140" stroke="#d1d5db"/><line x1="60" y1="170" x2="300" y2="170" stroke="#d1d5db"/><line x1="60" y1="200" x2="300" y2="200" stroke="#d1d5db"/><line x1="60" y1="230" x2="300" y2="230" stroke="#d1d5db"/><line x1="60" y1="260" x2="300" y2="260" stroke="#d1d5db"/><line x1="60" y1="290" x2="300" y2="290" stroke="#d1d5db"/><line x1="60" y1="50" x2="60" y2="290" stroke="#d1d5db"/><line x1="90" y1="50" x2="90" y2="290" stroke="#d1d5db"/><line x1="120" y1="50" x2="120" y2="290" stroke="#d1d5db"/><line x1="150" y1="50" x2="150" y2="290" stroke="#d1d5db"/><line x1="180" y1="50" x2="180" y2="290" stroke="#d1d5db"/><line x1="210" y1="50" x2="210" y2="290" stroke="#d1d5db"/><line x1="240" y1="50" x2="240" y2="290" stroke="#d1d5db"/><line x1="270" y1="50" x2="270" y2="290" stroke="#d1d5db"/><line x1="300" y1="50" x2="300" y2="290" stroke="#d1d5db"/><circle cx="180" cy="110" r="6" fill="#16a34a"/><text x="190" y="114" font-size="13">B</text><text x="62" y="305" font-size="13">x-axis</text></svg>