<svg xmlns="http://www.w3.org/2000/svg" width="420" height="280" viewBox="0 0 420 280"><rect width="420" height="280" fill="#ffffff" stroke="#d1d5db"/><text x="18" y="24" font-size="16" font-family="Arial" fill="#111827">School Map 1</text><line x1="70" y1="55" x2="286" y2="55" stroke="#cbd5e1"/><line x1="70" y1="55" x2="70" y2="271" stroke="#cbd5e1"/><line x1="70" y1="91" x2="286" y2="91" stroke="#cbd5e1"/><line x1="106" y1="55" x2="106" y2="271" stroke="#cbd5e1"/><line x1="70" y1="127" x2="286" y2="127" stroke="#cbd5e1"/><line x1="142" y1="55" x2="142" y2="271" stroke="#cbd5e1"/><line x1="70" y1="163" x2="286" y2="163" stroke="#cbd5e1"/><line x1="178" y1="55" x2="178" y2="271" stroke="#cbd5e1"/><line x1="70" y1="199" x2="286" y2="199" stroke="#cbd5e1"/><line x1="214" y1="55" x2="214" y2="271" stroke="#cbd5e1"/><line x1="70" y1="235" x2="286" y2="235" stroke="#cbd5e1"/><line x1="250" y1="55" x2="250" y2="271" stroke="#cbd5e1"/><line x1="70" y1="271" x2="286" y2="271" stroke="#cbd5e1"/><line x1="286" y1="55" x2="286" y2="271" stroke="#cbd5e1"/><circle cx="106" cy="235" r="7" fill="#2563eb"/><text x="116" y="240" font-size="14" font-family="Arial" fill="#111827">H</text><circle cx="214" cy="91" r="7" fill="#2563eb"/><text x="224" y="96" font-size="14" font-family="Arial" fill="#111827">S</text></svg>